<svg width="455" height="455" viewBox="0 0 455 455" fill="none" xmlns="http://www.w3.org/2000/svg">
<path d="M436.8 0H18.2C8.13312 0 0 8.13312 0 18.2V436.8C0 446.867 8.13312 455 18.2 455H436.8C446.867 455 455 446.867 455 436.8V18.2C455 8.13312 446.867 0 436.8 0ZM384.248 132.803H347.904C319.41 132.803 313.893 146.339 313.893 166.246V178.274C313.893 195.849 328.141 210.096 345.716 210.096V210.096C364.91 210.096 379.736 226.962 377.276 245.998L376.59 251.301C374.562 266.996 361.197 278.744 345.371 278.744V278.744C327.986 278.744 313.893 292.838 313.893 310.223V419.538C313.893 439.123 298.016 455 278.432 455V455C258.847 455 242.97 439.123 242.97 419.538V308.462C242.97 292.081 229.691 278.801 213.31 278.801V278.801C196.929 278.801 183.649 265.522 183.649 249.141V239.757C183.649 223.376 196.929 210.096 213.31 210.096V210.096C229.691 210.096 242.97 196.817 242.97 180.436V159.478C242.97 100.726 278.858 68.705 331.297 68.705C340.056 68.705 348.38 68.9329 355.776 69.2659C372.151 70.0032 384.304 83.6639 384.304 100.055V132.746C384.304 132.778 384.279 132.803 384.248 132.803V132.803Z" fill="#7BDDBD"/>
</svg>
