<svg width="400" height="400" viewBox="0 0 400 400" fill="none" xmlns="http://www.w3.org/2000/svg">
<path d="M290.49 225.979H270.082V205.755C270.082 203.501 268.254 201.674 266 201.674C263.746 201.674 261.919 203.501 261.919 205.755V225.979H241.51C239.256 225.979 237.429 227.807 237.429 230.061C237.429 232.315 239.256 234.143 241.51 234.143H261.919V254.735C261.919 256.989 263.746 258.817 266 258.817C268.254 258.817 270.082 256.989 270.082 254.735V234.143H290.49C292.744 234.143 294.572 232.315 294.572 230.061C294.572 227.807 292.744 225.979 290.49 225.979Z" fill="#28B485"/>
<path d="M326 174.967C326 138.889 298.447 109.538 264.58 109.538C250.485 109.538 236.925 114.668 226 124.062C215.075 114.669 201.515 109.538 187.42 109.538C153.553 109.538 126 138.889 126 174.967C126 200.945 142.035 226.613 173.659 251.26C195.016 267.904 216.189 278.263 217.08 278.696L224.216 282.165C224.779 282.439 225.389 282.576 226 282.576C226.611 282.576 227.221 282.439 227.784 282.165L234.92 278.696C235.123 278.597 236.388 277.979 238.466 276.889C246.557 281.696 255.996 284.462 266.071 284.462C295.962 284.462 320.282 260.142 320.282 230.25C320.282 223.023 318.856 216.123 316.278 209.812C322.743 198.303 326 186.667 326 174.967ZM226 273.921L220.648 271.285C220.647 271.285 220.647 271.285 220.647 271.285C219.788 270.877 199.364 260.909 178.677 244.787C149.139 221.767 134.163 198.253 134.163 174.921C134.163 143.344 158.054 117.678 187.42 117.678C200.629 117.678 213.321 122.951 223.156 132.505C224.74 134.044 227.26 134.05 228.845 132.512C238.68 122.958 251.371 117.701 264.581 117.701C293.946 117.702 317.837 143.396 317.837 174.973C317.837 183.622 315.767 192.297 311.671 200.962C309.976 198.331 308.058 195.858 305.946 193.565C308.422 187.289 309.673 181.073 309.673 174.967C309.673 147.892 289.445 125.864 264.58 125.864C248.64 125.864 234.061 135.072 226 149.535C217.939 135.072 203.36 125.864 187.42 125.864C162.555 125.864 142.327 147.892 142.327 174.967C142.327 186.502 146.776 198.428 155.551 210.414C162.376 219.736 171.845 229.146 183.695 238.381C201.592 252.329 219.23 261.51 223.344 263.579C225.62 266.49 228.188 269.117 231.002 271.509L226 273.921ZM215.581 249.992C193.797 237.239 150.49 207.759 150.49 174.967C150.49 152.393 167.056 134.028 187.42 134.028C202.878 134.028 216.825 144.845 222.123 160.945C222.674 162.619 224.237 163.751 226 163.751C227.762 163.751 229.326 162.62 229.877 160.945C235.175 144.845 249.121 134.028 264.58 134.028C284.943 134.028 301.509 152.394 301.509 174.967C301.509 179.232 300.775 183.441 299.452 187.565C290.243 180.347 278.651 176.038 266.07 176.038C236.178 176.038 211.859 200.358 211.859 230.25C211.859 237.212 213.18 243.871 215.581 249.992ZM266.071 276.298C240.68 276.298 220.023 255.641 220.023 230.25C220.023 204.859 240.68 184.202 266.071 184.202C291.462 184.202 312.118 204.859 312.118 230.25C312.118 255.641 291.462 276.298 266.071 276.298Z" fill="#28B485"/>
<g clip-path="url(#clip0_72_248)">
<path d="M100.297 371.601C97.2038 376.878 97.3723 383.388 102.673 387.304C107.209 390.647 115.283 390.212 118.383 384.932C124.792 374 136.415 365.768 136.415 365.768C136.415 365.768 132.135 356.339 130.11 338.671C130.106 338.675 107.589 359.156 100.297 371.601Z" fill="#28262C"/>
<path d="M191.723 276.512C178.571 264.806 164.462 254.302 149.021 245.854C147.36 244.597 145.459 243.613 143.454 242.956C142.113 242.414 140.796 242.151 139.528 242.114C137.409 241.871 135.286 241.979 133.342 242.501C128.209 243.876 124.745 247.017 122.774 251.013C113.261 262.123 105.315 274.197 98.1846 286.955C91.1047 299.612 110.508 310.938 117.581 298.291C119.792 294.332 122.07 290.43 124.449 286.602C126.501 300.431 128.55 314.261 130.595 328.087C131.01 330.891 132.344 333.303 134.208 335.265C137.186 354.951 142.656 374.371 151.279 392.238C157.57 405.279 176.936 393.879 170.675 380.898C164.232 367.551 159.926 352.774 157.274 337.869C163.103 333.809 165.216 326.496 164.125 319.103C162.096 305.449 160.077 291.788 158.049 278.13C164.189 282.561 170.113 287.313 175.824 292.398C186.631 301.985 202.574 286.157 191.723 276.512Z" fill="#28262C"/>
<path d="M137.84 237.143C148.649 237.143 157.412 228.381 157.412 217.572C157.412 206.763 148.649 198 137.84 198C127.031 198 118.269 206.763 118.269 217.572C118.269 228.381 127.031 237.143 137.84 237.143Z" fill="#28262C"/>
</g>
<path d="M354.636 73.311H350.364V86H354.636V73.311Z" fill="#F8A87D"/>
<path d="M354.636 11H350.364V23.6889H354.636V11Z" fill="#F8A87D"/>
<path d="M324.473 73.5062L327.494 76.5264L336.466 67.5541L333.446 64.5339L324.473 73.5062Z" fill="#F8A87D"/>
<path d="M368.534 29.4456L371.554 32.4658L380.526 23.4936L377.506 20.4734L368.534 29.4456Z" fill="#F8A87D"/>
<path d="M327.689 46.3643H315V50.6355H327.689V46.3643Z" fill="#F8A87D"/>
<path d="M390 46.3643H377.311V50.6355H390V46.3643Z" fill="#F8A87D"/>
<path d="M327.494 20.4734L324.474 23.4937L333.446 32.4659L336.466 29.4457L327.494 20.4734Z" fill="#F8A87D"/>
<path d="M371.554 64.534L368.534 67.5542L377.506 76.5264L380.527 73.5062L371.554 64.534Z" fill="#F8A87D"/>
<path d="M352.5 68.8711C363.75 68.8711 372.871 59.7507 372.871 48.5C372.871 37.2494 363.75 28.1289 352.5 28.1289C341.249 28.1289 332.128 37.2494 332.128 48.5C332.128 59.7507 341.249 68.8711 352.5 68.8711Z" fill="#F8A87D"/>
<path d="M352.499 64.1298C361.132 64.1298 368.129 57.1321 368.129 48.5C368.129 39.8678 361.132 32.8701 352.499 32.8701C343.867 32.8701 336.87 39.8678 336.87 48.5C336.87 57.1321 343.867 64.1298 352.499 64.1298Z" fill="#FF7730"/>
<defs>
<clipPath id="clip0_72_248">
<rect width="200" height="200" fill="white" transform="translate(46 198)"/>
</clipPath>
</defs>
</svg>
