<svg width="455" height="455" viewBox="0 0 455 455" fill="none" xmlns="http://www.w3.org/2000/svg">
<path d="M58.422 0.0180664H396.605C428.734 0.0180664 455 26.2928 455 58.4219V396.605C455 428.725 428.734 454.982 396.605 454.982H58.422C26.2929 454.982 0 428.724 0 396.605V58.4219C0 26.2928 26.2929 0.0180664 58.422 0.0180664ZM331.461 50.5488C320.18 50.5488 310.979 59.7869 310.979 71.0618V120.071C310.979 131.351 320.18 140.568 331.461 140.568H382.881C394.144 140.568 403.365 131.351 403.365 120.071V71.0618C403.365 59.7869 394.144 50.5488 382.881 50.5488H331.461ZM403.561 192.416H363.527C367.323 204.815 369.381 217.89 369.381 231.484C369.381 307.139 306.036 368.5 227.928 368.5C149.839 368.5 86.4925 307.139 86.4925 231.484C86.4925 217.89 88.5703 204.815 92.3483 192.416H50.5808V384.627C50.5808 394.58 58.7086 402.678 68.6534 402.678H385.496C395.45 402.678 403.561 394.58 403.561 384.627V192.416ZM227.929 137.983C177.485 137.983 136.565 177.611 136.565 226.538C136.565 275.416 177.485 315.074 227.929 315.074C278.401 315.074 319.322 275.416 319.322 226.538C319.322 177.609 278.401 137.983 227.929 137.983Z" fill="#7BDDBD"/>
</svg>
