<svg width="400" height="400" viewBox="0 0 400 400" fill="none" xmlns="http://www.w3.org/2000/svg">
<path d="M196.959 168.816C188.742 168.816 182.074 175.889 182.074 184.605C182.074 193.322 188.742 200.395 196.959 200.395C205.177 200.395 211.845 193.322 211.845 184.605C211.845 175.889 205.177 168.816 196.959 168.816ZM254.212 195.751L207.602 225.973L201.607 302.706C201.27 307.779 197.229 311.708 192.446 311.708C192.244 311.708 192.042 311.708 191.84 311.708L162.877 309.779C161.058 309.636 159.374 308.993 157.96 307.85L173.789 290.989L183.96 291.632L184.97 276.342H179.985L154.121 303.92C152.302 305.778 150.012 306.778 147.655 306.778C145.364 306.778 143.074 305.849 141.256 304.063L120.779 283.058C117.142 279.343 117.075 273.199 120.577 269.34C124.08 265.482 129.872 265.411 133.51 269.126L147.587 283.415L164.898 264.982L169.411 214.97L138.09 170.388C135.463 166.672 136.204 161.385 139.706 158.67C143.209 155.884 148.193 156.67 150.753 160.385L179.514 201.252L204.368 208.397L245.927 181.462C249.632 179.033 254.549 180.319 256.839 184.248C259.129 188.178 257.917 193.322 254.212 195.751ZM164.494 317.281H169.815V331.356H164.494V317.281ZM153.919 317.281H159.24V337H153.919V317.281ZM143.276 317.281H148.598V331.356H143.276V317.281Z" fill="#28262C"/>
<path d="M323.636 83.311H319.364V96H323.636V83.311Z" fill="#F8A87D"/>
<path d="M323.636 21H319.364V33.6889H323.636V21Z" fill="#F8A87D"/>
<path d="M293.473 83.5062L296.494 86.5264L305.466 77.5541L302.446 74.5339L293.473 83.5062Z" fill="#F8A87D"/>
<path d="M337.534 39.4456L340.554 42.4658L349.526 33.4936L346.506 30.4734L337.534 39.4456Z" fill="#F8A87D"/>
<path d="M296.689 56.3643H284V60.6355H296.689V56.3643Z" fill="#F8A87D"/>
<path d="M359 56.3643H346.311V60.6355H359V56.3643Z" fill="#F8A87D"/>
<path d="M296.494 30.4734L293.474 33.4937L302.446 42.4659L305.466 39.4457L296.494 30.4734Z" fill="#F8A87D"/>
<path d="M340.554 74.534L337.534 77.5542L346.506 86.5264L349.527 83.5062L340.554 74.534Z" fill="#F8A87D"/>
<path d="M321.5 78.8711C332.75 78.8711 341.871 69.7507 341.871 58.5C341.871 47.2494 332.75 38.1289 321.5 38.1289C310.249 38.1289 301.128 47.2494 301.128 58.5C301.128 69.7507 310.249 78.8711 321.5 78.8711Z" fill="#F8A87D"/>
<path d="M321.499 74.1298C330.132 74.1298 337.129 67.1321 337.129 58.5C337.129 49.8678 330.132 42.8701 321.499 42.8701C312.867 42.8701 305.87 49.8678 305.87 58.5C305.87 67.1321 312.867 74.1298 321.499 74.1298Z" fill="#FF7730"/>
<path d="M62 371.821L83.2988 339.556C87.241 350.065 85.693 362.194 104.132 368.43C110.698 360.136 113.336 352.006 110.321 344.112C119.242 351.113 131.147 357.948 133.447 365.317C137.78 359.855 140.869 354.427 152.079 348.773C151.633 355.14 142.024 360.971 159.506 364.151C167.963 359.17 176.494 354.2 177.94 348.05C190.403 354.091 188.687 361.313 192.558 368.071C197.49 361.425 201.511 342.892 220.043 337C218.22 349.205 217.78 358.869 236.096 363.78C254.2 360.004 255.764 352.604 256.182 345.583C268.962 351.613 277.544 358.483 278.364 366.905C283.418 359.878 289.302 352.852 303.788 345.825C300.42 354.447 303.035 361.152 315.228 364.787C323.291 359.362 330.172 353.938 332.291 348.512C343.084 356.596 339.908 364.097 342.079 371.821H62Z" fill="#28B485"/>
</svg>
