<svg width="400" height="250" viewBox="0 0 400 250" fill="none" xmlns="http://www.w3.org/2000/svg">
<g clip-path="url(#clip0_13_2)">
<path d="M107.955 209.097C108.436 210.419 109.878 211.337 109.718 213.026C108.396 212.659 107.314 212.181 106.754 210.969C106.233 209.831 105.512 208.766 104.951 207.665C104.03 205.829 103.549 203.772 102.308 202.047C101.306 200.651 101.186 199.146 101.026 197.567C100.986 197.273 100.906 196.869 101.306 196.796C101.667 196.722 102.107 197.2 102.588 197.897C103.549 199.366 104.551 201.79 104.831 202.304C106.033 204.544 107.114 206.783 107.955 209.097ZM286 209.537C285.76 209.023 285.559 208.473 285.439 207.922C283.156 206.343 280.913 204.764 278.39 203.479C277.188 202.854 276.066 202.12 275.025 201.312C275.025 201.165 274.985 201.019 274.825 200.872C273.623 199.623 272.381 198.411 271.18 197.163C270.298 195.804 269.057 194.666 267.695 193.748C265.532 192.279 263.529 190.737 261.727 188.975C259.363 186.661 256.56 185.707 253.155 186.037C251.312 186.221 249.95 185.413 249.189 183.981C248.108 181.961 246.145 180.456 244.183 179.207C242.38 178.069 239.696 177.004 238.455 175.352C237.934 174.691 237.213 174.14 236.812 173.369C235.571 171.092 233.368 170.064 230.924 169.146C229.883 168.779 229.122 168.045 228.481 167.273C227.76 166.429 226.999 165.731 226.198 164.923C225.437 164.189 225.196 163.051 224.475 162.206C223.634 161.215 222.593 160.37 221.511 159.599C219.789 158.351 218.067 157.102 216.625 155.597C215.583 154.495 214.662 153.797 213.14 154.642C211.898 155.34 210.697 156.111 209.615 156.992C209.134 157.396 208.654 157.8 208.253 158.24C207.893 158.644 207.612 159.452 207.172 159.783C204.969 161.472 202.285 162.647 200.082 164.336C199.361 164.887 198.52 164.703 198.039 163.895C196.597 161.545 194.554 159.673 192.552 157.763C192.111 157.322 191.59 156.955 191.07 156.662C189.387 155.78 188.065 154.532 185.902 154.789C185.822 154.715 185.782 154.679 185.702 154.605C182.978 152.365 180.695 149.758 178.212 147.335C177.611 146.747 177.211 145.976 176.65 145.352C175.648 144.214 174.206 143.663 172.804 143.039C170.161 141.937 167.838 140.285 165.514 138.706C162.07 136.392 159.026 133.785 156.983 130.26C156.021 128.645 154.619 128.608 153.057 130.003C150.334 132.427 147.85 135.071 145.487 137.788C144.085 139.403 142.483 140.799 140.68 142.011C140.28 142.268 139.919 142.561 139.519 142.855C137.436 143.81 135.673 145.168 134.272 146.931C134.191 147.041 134.151 147.151 134.151 147.261C132.429 148.657 130.867 150.052 129.585 151.741C127.502 154.458 125.379 157.176 123.457 159.966C121.414 162.941 118.45 165.107 115.806 167.53C114.044 169.146 112.041 170.615 109.838 171.79C108.516 172.488 107.274 172.377 105.993 171.533C105.432 171.166 104.831 170.762 104.23 170.431C104.23 170.248 104.15 170.064 103.91 169.917C102.147 168.816 100.105 167.714 98.4623 166.392C96.74 164.96 95.0176 163.528 93.2952 162.096C92.1336 161.141 90.6115 159.232 88.8091 159.452C88.0881 159.562 86.4458 160.003 86.0853 160.664C85.7649 161.251 85.6047 161.876 85.2842 162.463C84.5632 163.785 83.6019 164.923 82.3201 165.768C79.316 167.861 76.9127 170.578 74.189 172.928C71.2249 175.462 67.5799 177.041 64.3354 179.281C63.6144 179.428 63.1338 180.235 62.3727 180.346C60.8506 180.566 59.4087 181.227 58.0868 182.035C55.8838 183.43 55.3631 185.927 53.5206 187.579C52.9998 188.02 52.5592 188.534 51.9985 188.938C51.5579 189.268 50.917 189.489 50.5164 189.856C49.5952 190.553 48.6739 191.214 47.7126 191.875C45.9101 193.161 44.1076 194.115 42.1049 195.07C38.3798 196.906 34.935 198.962 32.732 202.414C31.3301 204.617 29.5276 206.563 27.9654 208.656C26.6837 210.345 25.6022 212.181 24 213.797C24.3204 213.944 24.4406 214.054 24.5207 214.017C27.4447 213.026 30.4489 213.356 33.4129 213.503C36.0165 213.613 37.859 212.438 39.8217 210.969C41.5441 209.684 43.7471 208.546 45.6698 207.591C46.4308 207.187 47.4723 207.004 48.1932 206.563C48.8742 206.159 49.2747 205.351 49.9156 204.874C51.3175 203.846 52.1987 202.487 53.08 201.055C53.4805 200.358 54.3217 200.027 55.2029 199.88C57.2056 199.586 58.4874 198.485 59.3686 196.832C60.37 194.997 62.0523 193.638 63.8147 192.426C64.5357 191.912 65.3368 191.141 66.178 190.884C67.3796 190.517 68.9418 190.664 70.1835 190.48C73.3879 190.039 76.0716 188.314 78.3547 186.257C80.798 184.017 83.1613 181.778 84.6033 178.767C84.8837 178.142 85.845 177.408 86.6861 176.82C88.8892 175.352 90.972 173.736 90.5314 170.762C90.4113 169.917 90.6916 169.073 90.8919 168.228C91.4927 168.081 92.0135 167.751 92.1336 167.127C92.1336 167.09 92.1336 167.053 92.1336 167.016C92.5742 166.502 92.8947 166.686 94.0563 167.384C94.0963 167.42 94.1364 167.42 94.1764 167.457C94.9775 168.228 95.8988 168.852 96.8601 169.403C100.505 172.231 104.23 174.911 108.676 176.71C111.28 177.775 113.082 179.611 113.483 182.365C113.683 183.871 114.564 185.192 115.366 186.478C115.806 187.212 115.886 188.754 116.968 188.938C117.248 188.975 117.609 189.011 117.809 189.195C117.969 189.342 118.009 189.562 118.049 189.782C118.41 191.325 119.772 192.059 121.053 192.977C125.139 195.878 128.023 200.578 132.83 202.561C135.233 203.552 137.236 205.168 139.238 206.747C142.723 209.464 146.368 212.585 150.614 214.237C151.215 214.458 152.056 215.082 152.497 214.421C152.897 213.834 152.336 213.099 151.776 212.585C150.814 211.741 149.853 210.896 148.852 210.125C147.97 209.464 147.61 208.583 147.329 207.591C147.009 206.416 147.41 205.719 148.251 204.801C149.292 203.699 149.693 202.414 150.173 201.019C150.454 200.137 151.015 199.366 151.896 198.852C152.857 198.301 154.019 198.265 154.94 197.677C157.183 196.245 158.425 192.83 158.585 190.443C158.745 187.946 159.026 185.45 159.146 182.953C159.186 182.255 159.466 181.521 160.187 181.19C160.668 180.933 161.269 180.86 161.789 180.749C163.672 180.309 162.951 178.693 163.271 177.481C163.111 178.032 164.353 177.555 164.433 177.481C165.394 176.967 166.235 175.792 167.437 175.719C168.559 175.645 169.28 176.71 169.88 177.445C170.922 178.73 172.043 179.942 173.485 180.896C176.57 182.989 178.933 185.633 179.934 189.085C180.135 189.746 180.655 190.884 180.976 191.508C182.257 193.932 183.259 196.465 184.701 198.815C184.901 199.183 186.704 201.9 187.705 201.973C188.025 202.01 188.226 201.936 188.226 201.569C188.146 200.211 186.984 199.403 186.263 198.338C186.103 198.081 185.902 197.09 185.582 196.208C184.46 192.904 183.099 189.709 181.296 186.625C180.815 185.817 180.735 184.715 180.215 183.834C179.293 182.255 177.691 181.153 176.369 179.905C173.766 177.408 171.603 174.838 172.164 171.092C172.684 170.945 172.925 171.386 173.285 171.643C175.729 173.222 178.292 174.727 181.016 175.866C182.298 176.38 183.419 176.747 184.581 177.518C186.263 178.656 187.585 180.125 189.227 181.3C190.749 182.365 192.351 183.356 193.353 184.899C194.234 186.294 195.716 187.285 196.878 188.46C197.919 189.525 198.279 190.921 198.84 192.206C199.121 192.867 199.441 193.491 199.962 194.042C201.404 195.657 201.284 197.861 202.085 199.733C202.525 200.798 202.605 202.12 203.407 203.075C204.208 204.029 204.889 205.131 205.409 206.233C205.93 207.334 206.13 208.693 207.172 209.464C207.612 209.794 208.093 210.088 208.534 210.419C208.814 211.116 209.335 211.777 209.935 212.475C210.216 209.721 208.734 207.261 207.452 204.911C205.73 201.753 205.449 198.265 204.808 194.813C205.65 194.813 206.21 195.18 206.691 195.547C209.535 197.53 212.619 199.293 214.462 202.23C214.862 202.854 215.583 203.185 216.264 203.442C217.866 204.029 219.148 204.874 220.069 206.233C220.67 207.114 221.431 207.591 222.433 207.922C223.634 208.326 224.756 208.913 225.958 209.354C227.44 209.868 228.922 209.905 230.364 209.28C230.844 209.097 230.684 208.399 230.003 208.142C228.922 207.701 227.88 207.187 226.759 206.857C225.196 206.38 223.915 205.535 222.993 204.433C221.551 202.634 219.629 201.422 217.706 200.174C215.503 198.742 213.661 196.943 212.539 194.703C211.658 192.977 210.296 192.096 208.453 191.545C207.252 191.178 206.01 190.847 204.969 190.223C200.242 186.331 196.597 181.447 191.67 177.702C188.987 175.645 186.143 173.552 182.778 172.194C180.175 171.166 177.531 170.138 175.729 167.934C175.688 167.898 175.648 167.861 175.608 167.824C175.568 167.787 175.568 167.751 175.528 167.714C175.288 167.42 175.008 167.163 174.727 166.98C174.687 166.943 174.687 166.943 174.647 166.906C173.606 165.952 172.364 165.18 170.922 164.777C169.4 164.299 167.077 165.401 166.155 166.98C166.075 167.127 166.075 167.347 165.955 167.457C164.193 168.963 163.031 170.909 161.429 172.561C159.546 174.47 157.263 174.801 154.9 175.976C153.178 176.857 152.216 178.767 150.894 180.088C149.292 181.741 147.85 183.503 147.209 185.67C147.009 186.441 146.408 187.028 145.767 187.543C144.606 188.571 143.284 189.342 141.842 190.003C141.321 190.223 140.76 190.48 140.44 190.884C138.838 192.757 136.314 193.307 134.312 194.629C133.47 195.18 132.789 195.107 131.988 194.299C130.867 193.161 129.385 192.389 128.744 190.811C128.383 189.966 128.183 189.489 128.383 189.195C129.745 188.938 131.027 188.571 132.309 188.02C132.87 187.8 132.709 187.212 132.309 186.955C134.191 184.054 136.034 181.337 136.755 178.179C137.476 175.021 137.276 171.716 138.157 168.559C138.597 166.943 139.238 165.511 140.841 164.409C142.323 163.418 143.124 161.766 144.205 160.407C144.566 159.966 144.566 159.379 144.526 158.791C144.325 156.258 144.606 153.283 147.009 151.668C148.531 150.603 149.733 149.171 150.414 147.518C151.135 145.793 150.934 143.957 152.336 142.488C153.618 141.166 154.66 139.734 155.02 137.971C155.18 137.237 155.781 136.723 156.382 136.392C157.704 135.658 160.147 138.742 160.988 139.403C163.752 141.607 166.796 143.589 169.8 145.499C170.962 146.233 172.284 146.821 173.525 147.482C175.328 148.4 176.409 150.236 177.731 151.631C178.332 152.292 178.292 152.769 177.291 152.733C174.687 152.622 172.604 153.944 170.321 154.826C169.68 155.083 169.039 155.376 168.759 156.258C170.081 156.111 171.282 156.037 172.484 155.854C173.926 155.597 175.288 156.074 176.65 156.441C178.132 156.845 179.614 156.845 181.136 156.992C184.38 157.322 188.105 158.02 190.309 160.333C192.552 162.684 194.474 165.254 196.237 167.898C197.759 170.138 199.401 172.341 201.003 174.507C201.244 174.838 201.604 175.388 202.085 175.168C202.565 174.948 202.285 174.397 202.205 173.993C202.125 173.516 201.965 173.075 202.045 172.488C204.488 172.965 206.531 174.067 208.093 175.645C211.938 179.574 215.383 183.797 218.908 187.946C219.789 188.975 220.19 190.076 220.59 191.214C221.031 192.426 221.592 193.564 222.553 194.519C223.995 195.951 224.756 197.75 225.917 199.329C226.198 199.697 226.358 200.101 226.999 200.101C227.279 199.513 227.199 198.742 226.919 198.375C225.557 196.575 225.557 194.409 224.916 192.426C224.676 191.655 224.596 191.178 224.796 190.847C225.437 190.921 226.078 190.957 226.759 191.031C228.922 191.986 230.964 193.161 233.248 193.932C234.85 194.446 236.252 195.217 237.413 196.355C238.775 197.677 240.377 198.668 242.02 199.586C242.46 199.843 242.58 200.578 242.821 201.092C243.582 202.744 243.862 204.507 244.183 206.269C244.383 207.371 244.703 208.436 245.785 209.648C245.424 206.967 244.823 204.58 244.783 201.973C246.946 203.075 249.229 203.552 250.671 205.462C251.352 206.343 252.634 206.747 253.636 207.334C254.957 208.069 256.359 208.619 257.721 209.133C259.243 209.721 260.845 210.088 262.648 210.125C262.408 209.317 261.647 209.097 261.086 208.803C256.479 206.6 252.514 203.626 248.829 200.284C247.707 199.256 246.666 198.118 245.584 197.016C243.582 194.997 241.739 192.83 239.256 191.214C237.093 189.782 235.611 187.726 233.808 185.964C231.605 183.797 228.841 182.218 226.518 180.199C223.674 177.702 220.27 175.976 216.945 174.067C215.063 172.965 214.582 170.982 214.021 169.146C213.54 167.604 213.54 166.025 214.061 164.519C214.622 162.904 214.782 161.288 214.782 159.636C214.782 159.122 214.822 158.644 215.303 158.424C215.784 158.204 216.144 158.681 216.545 158.938C219.509 160.848 221.151 163.748 223.234 166.355C223.955 167.273 224.636 168.191 224.796 169.366C224.916 170.101 225.517 170.541 226.238 170.872C227.64 171.533 229.002 172.194 230.404 172.818C231.765 173.442 232.847 174.25 233.648 175.462C235.691 178.803 238.415 181.41 242.54 182.806C244.503 183.467 246.145 185.009 247.507 186.588C247.908 187.065 248.068 187.689 247.547 188.13C246.746 188.791 246.746 189.856 245.945 190.517C245.424 190.921 245.825 191.582 246.466 191.471C246.906 191.398 247.427 190.774 247.747 190.517C249.229 189.342 250.311 188.754 252.314 188.681C254.236 188.644 255.919 189.195 257.681 189.893C262.488 191.875 265.772 195.4 269.177 198.852C270.859 200.578 272.461 202.451 274.865 203.479C275.626 203.809 275.946 204.433 276.146 205.131C276.507 206.269 277.268 207.187 278.069 208.142C278.35 208.032 278.67 207.958 278.99 207.885C278.79 206.894 277.989 206.122 277.949 205.168C278.51 205.131 278.83 205.498 279.151 205.719C281.474 207.151 283.557 208.583 286 209.537ZM132.509 210.419C132.149 209.648 131.748 208.95 130.867 208.326C130.506 207.665 129.906 207.077 129.024 206.6C125.459 204.58 121.694 202.928 118.089 201.019C116.727 200.284 115.686 199.146 114.645 198.081C113.523 196.943 112.321 196.172 110.919 195.364C107.274 193.234 103.669 190.811 100.505 188.093C100.385 187.322 99.6239 186.735 98.8228 186.588C98.7828 186.588 98.7828 186.588 98.7427 186.588C98.0217 185.303 96.6598 184.201 95.2579 184.017C94.3366 183.907 93.5756 184.311 92.9347 184.825C91.4126 186.037 89.9306 187.396 88.3284 188.534C86.6861 189.709 84.9237 191.068 83.1212 191.986C81.3989 192.867 79.2359 192.61 77.3934 192.573C75.8312 192.536 74.6296 193.05 73.5881 194.079C71.9859 195.657 69.6627 196.502 68.1807 198.118C68.0605 198.265 66.6586 198.265 66.3782 198.301C65.7374 198.448 65.0965 198.632 64.5357 198.926C63.3741 199.476 62.533 200.321 61.5316 201.092C59.1283 202.928 56.8852 204.947 54.6421 206.967C54.1614 207.408 53.6007 207.298 53.2802 207.628C50.8769 209.868 47.7126 211.594 46.6311 214.862C46.5109 215.229 46.1504 215.523 46.3908 216C48.3535 214.421 50.3562 212.879 52.2789 211.263C53.08 210.602 54.3217 210.492 55.1228 209.831C55.4032 209.611 57.0454 207.995 57.486 208.656C57.8065 209.133 57.6462 209.978 57.2056 210.639C56.2443 212.034 55.3631 213.43 54.2015 214.715C56.5247 213.797 58.0468 212.181 59.2885 210.272C60.6103 208.179 62.2926 206.416 64.5758 205.094C67.4197 203.442 70.584 202.377 73.4279 200.761C74.2691 200.284 74.95 199.586 75.8713 199.256C76.3519 199.329 77.0329 199.44 77.5135 199.329C77.6337 199.403 77.7539 199.513 77.874 199.586C77.6738 200.064 77.3133 200.541 76.9528 200.945C75.2304 202.854 73.5481 204.801 71.7056 206.637C71.5854 206.783 71.4652 206.894 71.3851 207.04C70.584 207.555 69.9031 208.142 69.3423 208.876C67.5398 210.382 65.497 211.63 63.9749 213.43C62.9736 214.605 63.2139 215.486 64.8161 215.78C67.2995 216.22 69.6627 215.853 71.7056 214.421C73.3879 213.283 75.1903 212.732 77.2732 212.695C79.1958 212.659 80.8381 212.034 82.3201 210.859C83.6019 209.831 85.3643 209.354 86.4859 208.105C87.9278 206.526 89.4499 204.984 90.0107 202.965C90.251 202.083 90.932 201.533 91.4927 200.872C92.1336 200.137 93.5756 199.917 94.4168 199.476C95.6585 198.779 95.8988 197.567 96.0991 196.355C96.3394 194.629 97.3408 193.491 98.5825 192.389C99.4236 191.655 100.265 191.618 101.026 192.5C102.948 194.813 105.672 196.025 108.396 197.273C109.998 198.008 111.52 198.889 112.682 200.358C113.924 201.9 115.045 203.515 116.207 205.131C117.008 206.269 117.569 208.179 118.77 208.95C120.613 210.125 121.814 211.116 123.016 212.879C123.617 213.797 124.338 214.641 125.499 215.596C125.179 212.328 124.498 209.537 121.814 207.591C120.733 206.783 120.453 205.719 120.172 204.397C123.136 205.315 125.499 206.783 127.702 208.509C128.864 209.427 130.026 210.529 131.348 211.3C131.628 212.402 133.11 212.328 133.711 213.173C133.43 212.805 133.39 212.034 133.19 211.594C132.83 211.153 132.669 210.749 132.509 210.419Z" fill="#F8A87D"/>
<path d="M248.662 169L247.312 135.75L236.912 137.1V129.5L267.862 132.35V133.05L256.512 134.55L255.162 169H248.662ZM294.972 155.1C294.972 157.3 294.522 159.3 293.622 161.1C292.722 162.867 291.539 164.383 290.072 165.65C288.606 166.917 287.022 167.9 285.322 168.6C283.622 169.267 281.972 169.6 280.372 169.6C278.772 169.6 277.122 169.267 275.422 168.6C273.722 167.9 272.122 166.917 270.622 165.65C269.156 164.383 267.956 162.867 267.022 161.1C266.122 159.3 265.672 157.3 265.672 155.1C265.672 152.9 266.122 150.9 267.022 149.1C267.956 147.3 269.156 145.767 270.622 144.5C272.122 143.2 273.722 142.217 275.422 141.55C277.122 140.85 278.772 140.5 280.372 140.5C281.972 140.5 283.622 140.85 285.322 141.55C287.022 142.217 288.606 143.2 290.072 144.5C291.539 145.767 292.722 147.3 293.622 149.1C294.522 150.9 294.972 152.9 294.972 155.1ZM281.872 166C283.639 166 284.989 165.367 285.922 164.1C286.856 162.8 287.322 160.467 287.322 157.1C287.322 154.1 286.856 151.65 285.922 149.75C285.022 147.85 283.922 146.467 282.622 145.6C281.322 144.7 280.072 144.25 278.872 144.25C277.706 144.25 276.706 144.517 275.872 145.05C275.039 145.583 274.406 146.5 273.972 147.8C273.539 149.067 273.322 150.833 273.322 153.1C273.322 155.133 273.589 156.95 274.122 158.55C274.689 160.15 275.406 161.517 276.272 162.65C277.139 163.75 278.056 164.583 279.022 165.15C280.022 165.717 280.972 166 281.872 166ZM330.828 165C329.395 166.333 328.045 167.45 326.778 168.35C325.511 169.217 324.395 169.65 323.428 169.65C322.595 169.65 321.895 169.25 321.328 168.45C320.795 167.617 320.445 166.2 320.278 164.2C319.611 165.233 318.711 166.167 317.578 167C316.445 167.8 315.228 168.433 313.928 168.9C312.628 169.367 311.395 169.6 310.228 169.6C308.195 169.6 306.611 169.233 305.478 168.5C304.345 167.767 303.528 166.7 303.028 165.3C302.528 163.867 302.195 162.083 302.028 159.95L300.728 141.15H309.278L308.478 159.55V160.15C308.478 161.617 308.778 162.683 309.378 163.35C310.011 164.017 311.128 164.35 312.728 164.35C313.661 164.35 314.811 164.1 316.178 163.6C317.545 163.1 318.845 162.267 320.078 161.1L318.728 141.15H327.228L326.528 160.35V161.7C326.528 162.9 326.628 163.767 326.828 164.3C327.061 164.8 327.578 165.05 328.378 165.05C328.645 165.05 328.961 165.017 329.328 164.95C329.728 164.883 330.161 164.8 330.628 164.7L330.828 165ZM337.721 169L335.921 141.15H344.721L344.571 146.1C345.337 145.1 346.271 144.183 347.371 143.35C348.471 142.483 349.654 141.8 350.921 141.3C352.221 140.767 353.521 140.5 354.821 140.5V147.85C354.154 147.483 353.404 147.217 352.571 147.05C351.771 146.85 350.937 146.75 350.071 146.75C349.037 146.75 348.021 146.883 347.021 147.15C346.021 147.383 345.187 147.733 344.521 148.2L343.871 169H337.721ZM379.03 150.55C378.164 149.683 377.064 148.817 375.73 147.95C374.397 147.083 373.03 146.333 371.63 145.7C370.264 145.033 369.064 144.617 368.03 144.45C367.797 144.383 367.564 144.35 367.33 144.35C367.097 144.35 366.864 144.35 366.63 144.35C365.597 144.35 364.747 144.533 364.08 144.9C363.414 145.267 363.08 145.733 363.08 146.3C363.08 146.833 363.414 147.367 364.08 147.9C364.747 148.4 365.747 148.983 367.08 149.65C368.447 150.317 369.947 151.067 371.58 151.9C373.214 152.7 374.83 153.583 376.43 154.55C378.03 155.517 379.43 156.533 380.63 157.6C381.83 158.667 382.63 159.8 383.03 161C383.33 161.833 383.48 162.617 383.48 163.35C383.48 165.283 382.497 166.817 380.53 167.95C378.564 169.05 375.647 169.6 371.78 169.6C368.747 169.6 365.93 168.767 363.33 167.1C360.73 165.433 358.58 163.283 356.88 160.65L357.28 160.15C359.347 161.75 361.547 163.017 363.88 163.95C366.214 164.85 368.497 165.3 370.73 165.3C372.23 165.3 373.397 165.1 374.23 164.7C375.097 164.3 375.53 163.8 375.53 163.2C375.53 163.067 375.497 162.9 375.43 162.7C375.097 161.767 374.297 160.867 373.03 160C371.764 159.1 370.264 158.167 368.53 157.2C366.83 156.2 365.08 155.1 363.28 153.9C361.514 152.667 359.93 151.267 358.53 149.7C357.764 148.767 357.38 147.817 357.38 146.85C357.38 145.783 357.764 144.767 358.53 143.8C359.297 142.833 360.38 142.05 361.78 141.45C363.18 140.817 364.814 140.5 366.68 140.5C368.947 140.5 371.097 140.683 373.13 141.05C375.164 141.417 376.98 141.9 378.58 142.5C380.214 143.067 381.497 143.7 382.43 144.4L379.03 150.55Z" fill="#FCFCFC"/>
<path d="M287.472 191.351C289.042 190.597 290.79 192.127 291.889 194.115C291.903 195.16 292.346 196.078 292.887 196.815L290.784 198.533C287.954 197.399 285.14 193.174 286.992 191.66C287.137 191.54 287.299 191.436 287.473 191.352L287.472 191.351ZM293.628 197.622L291.486 199.371C294.104 203.483 297.766 199.344 293.628 197.622H293.628ZM301.977 207.217C301.803 207.302 301.641 207.406 301.496 207.526C299.644 209.04 302.459 213.265 305.289 214.399L307.392 212.681C306.851 211.944 306.409 211.026 306.393 209.98C305.294 207.993 303.546 206.463 301.976 207.216L301.977 207.217ZM308.134 213.489L305.992 215.238C308.609 219.348 312.272 215.21 308.132 213.489L308.134 213.489ZM301.927 193.449C300.529 194.433 301.44 196.453 303.079 198.124C304.16 198.544 304.944 199.263 305.499 199.991L308.112 198.949C308.036 196.202 304.737 192.26 302.438 193.178C302.256 193.249 302.085 193.34 301.929 193.449L301.927 193.449ZM306.052 200.91C306.228 204.952 311.967 203.585 308.707 199.849L306.052 200.91ZM286.366 178.722C285.289 179.982 286.737 181.735 288.789 182.998C289.956 183.168 290.916 183.696 291.658 184.276L293.894 182.694C293.054 180.05 288.753 176.951 286.784 178.346C286.628 178.455 286.487 178.581 286.366 178.72L286.366 178.722ZM292.452 185.045C293.755 188.922 298.933 186.341 294.728 183.435L292.453 185.045H292.452Z" fill="#FCFCFC"/>
<path d="M11 216.078L20.552 213.621C30.104 211.223 49.208 206.31 67.9936 204.673C86.9384 203.035 105.406 204.556 124.35 207.422C143.136 210.229 162.24 214.323 181.344 215.493C200.448 216.662 219.552 214.908 238.656 212.978C257.76 210.989 276.864 208.884 295.65 206.895C314.594 204.965 333.062 203.21 352.006 205.082C370.792 206.895 389.896 212.393 399.448 215.083L409 217.832V250H399.448C389.896 250 370.792 250 352.006 250C333.062 250 314.594 250 295.65 250C276.864 250 257.76 250 238.656 250C219.552 250 200.448 250 181.344 250C162.24 250 143.136 250 124.35 250C105.406 250 86.9384 250 67.9936 250C49.208 250 30.104 250 20.552 250H11L11 216.078Z" fill="#7BDDBD"/>
<path d="M43.6744 51.4H56.5544L55.2944 93.47C55.2011 97.11 54.7111 99.9567 53.8244 102.01C52.9844 104.017 51.9111 105.417 50.6044 106.21C49.3444 107.003 48.0144 107.4 46.6144 107.4C44.9811 107.4 43.0444 106.887 40.8044 105.86C38.6111 104.787 36.4177 103.387 34.2244 101.66C32.0777 99.9333 30.2111 98.0667 28.6244 96.06L28.9744 95.36C30.8877 96.2467 32.8244 96.97 34.7844 97.53C36.7444 98.09 38.5411 98.51 40.1744 98.79C41.8544 99.0233 43.1144 99.14 43.9544 99.14C44.7477 99.14 45.3544 98.8133 45.7744 98.16C46.1944 97.5067 46.4044 96.1767 46.4044 94.17C46.4044 93.7967 46.4044 93.4 46.4044 92.98C46.4044 92.56 46.3811 92.1167 46.3344 91.65L43.6744 51.4ZM73.3998 106.7L70.8098 51.4H83.5498L83.4098 56.72L108.61 50.7V62.04L83.3398 59.59L82.9198 77.3L105.04 72.12V83.25L82.8498 80.1L82.4298 96.97L110.01 99.91V100.61L73.3998 106.7ZM165.482 106L163.452 65.05L147.842 100.68H147.352L131.672 65.05L125.302 106.98H124.252L120.402 51.4H133.282L150.292 79.68L163.312 51.4H174.722L173.672 106H165.482ZM233.395 106L231.365 65.05L215.755 100.68H215.265L199.585 65.05L193.215 106.98H192.165L188.315 51.4H201.195L218.205 79.68L231.225 51.4H242.635L241.585 106H233.395ZM294.379 106.77L286.119 89.13L258.399 93.96L251.119 106.77H250.069L269.179 51.47L280.239 49.79L302.639 105.86L294.379 106.77ZM274.709 64.77L263.859 84.16L285.279 87.45L274.709 64.77Z" fill="#FCFCFC"/>
</g>
<defs>
<clipPath id="clip0_13_2">
<rect width="400" height="250" fill="white"/>
</clipPath>
</defs>
</svg>
