<svg width="400" height="400" viewBox="0 0 400 400" fill="none" xmlns="http://www.w3.org/2000/svg">
<path d="M68.6094 241.625C72.9062 241.625 76.4219 238.109 76.4219 233.812C76.4219 229.516 72.9062 226 68.6094 226C64.3125 226 60.7969 229.516 60.7969 233.812C60.7969 238.109 64.3125 241.625 68.6094 241.625Z" fill="#28262C"/>
<path d="M50.0157 265.453L55.4845 242.875C55.797 241.703 55.0157 240.453 53.8438 240.14L47.3595 238.578C46.1095 238.265 44.9376 239.047 44.6251 240.219L39.1563 262.797C38.8438 263.969 39.6251 265.219 40.797 265.531L47.2813 267.094C48.4532 267.406 49.7032 266.703 50.0157 265.453Z" fill="#28262C"/>
<path d="M100.25 250.688C99.3906 250.688 98.6875 251.391 98.4531 252.25L85.4062 323.266C85.4062 323.344 85.4062 323.344 85.4062 323.422C85.4062 324.437 86.1875 325.219 87.2031 325.219C88.1406 325.219 88.8437 324.516 89 323.656L102.047 252.719V252.562C102.047 251.547 101.266 250.688 100.25 250.688Z" fill="#28262C"/>
<path d="M69.3125 267.015L70.3281 262.484L71.1094 266.078C71.8125 268.422 74 268.656 74 268.656L86.6562 271.859C86.8906 271.937 87.125 271.937 87.4375 271.937C89.5469 271.937 91.1875 270.297 91.1875 268.187C91.1875 266.39 89.9375 264.906 88.2969 264.515L77.2812 261.781L74.3125 249.437C72.9063 242.562 66.3437 242.719 66.3437 242.719C60.0156 242.562 58.375 249.203 58.375 249.203L41.8906 318.5C41.8125 318.89 41.8125 319.203 41.8125 319.594C41.8125 322.64 44.2344 325.062 47.2812 325.062C49.7813 325.062 51.8906 323.422 52.5156 321.156L61.9687 282.25L70.9531 321C71.5 323.422 73.6875 325.14 76.2656 325.14C79.3125 325.14 81.7344 322.719 81.7344 319.672C81.7344 319.281 81.6562 318.89 81.5781 318.5L69.3125 267.015Z" fill="#28262C"/>
<g clip-path="url(#clip0_72_4)">
<path d="M103.36 307.455C104.04 307.824 104.773 308 105.497 308C107.094 308 108.643 307.149 109.457 305.642L168.073 197.414C168.199 197.153 171.223 191.001 177.5 191.001C178.392 191.001 179.395 191.451 180.385 192.058L142.069 260.808C140.858 262.982 141.641 265.722 143.81 266.933C144.503 267.315 145.254 267.5 145.997 267.5C147.576 267.5 149.106 266.667 149.934 265.191L187.667 197.48L201.801 208.1C203.592 209.45 206.098 209.266 207.682 207.681L231.5 183.863L246.319 198.681C248.078 200.441 250.922 200.441 252.682 198.681L266.181 185.181C267.941 183.422 267.941 180.578 266.181 178.819C264.422 177.059 261.578 177.059 259.819 178.819L249.5 189.137L234.682 174.319C232.922 172.559 230.078 172.559 228.319 174.319L204.078 198.56L189.282 187.463L188.76 187.049C186.392 185.159 182.428 182.001 177.501 182.001C165.41 182.001 160.136 193.143 160.046 193.358L101.546 301.357C100.358 303.54 101.173 306.271 103.36 307.455Z" fill="#28B485"/>
<path d="M159.501 317H105.502C103.018 317 101.002 319.016 101.002 321.499C101.002 323.983 103.018 325.999 105.502 325.999H159.501C161.985 325.999 164.001 323.983 164.001 321.499C164.001 319.016 161.985 317 159.501 317Z" fill="#28B485"/>
<path d="M192.378 179.283C194.565 180.466 197.292 179.647 198.476 177.46L226.573 125.414C226.699 125.152 229.723 119.001 236 119.001C242.278 119.001 245.302 125.152 245.55 125.657L321.644 265.169C322.463 266.667 324.006 267.513 325.6 267.513C326.328 267.513 327.067 267.338 327.751 266.964C329.933 265.772 330.738 263.04 329.546 260.858L309.004 223.202C310.111 222.743 311.281 222.5 312.5 222.5C318.777 222.5 321.801 228.652 322.022 229.101L362.522 305.605C363.332 307.131 364.889 307.999 366.504 307.999C367.215 307.999 367.935 307.833 368.606 307.477C370.801 306.312 371.638 303.589 370.478 301.393L330.086 225.114C329.866 224.642 324.592 213.5 312.5 213.5C309.76 213.5 307.15 214.17 304.711 215.331L253.587 121.616C253.366 121.143 248.092 110.001 236.001 110.001C223.905 110.001 218.636 121.143 218.541 121.364L190.556 173.185C189.377 175.368 190.191 178.099 192.378 179.283Z" fill="#28B485"/>
<path d="M339.499 316.999H290V307.999H299H299.09C301.574 307.999 303.59 305.983 303.59 303.5C303.59 302.631 303.343 301.821 302.92 301.137L289.717 265.92C289.055 264.165 287.377 263 285.5 263C283.623 263 281.945 264.165 281.283 265.92L267.784 301.92C267.27 303.302 267.46 304.85 268.301 306.065C269.143 307.275 270.524 307.999 272 307.999H281V316.999H263V303.5C263 301.016 260.984 299 258.5 299H251.494L258.577 280.109L259.558 282.629C260.462 284.947 263.068 286.09 265.38 285.194C267.698 284.294 268.846 281.684 267.945 279.371L262.694 265.871C262.019 264.139 260.354 263.001 258.5 263.001H258.473C256.606 263.009 254.941 264.175 254.284 265.921L240.784 301.921C240.271 303.302 240.46 304.85 241.301 306.065C242.143 307.275 243.524 308 245 308H254V317H182.001V308H191.001H191.091C193.575 308 195.591 305.984 195.591 303.5C195.591 302.632 195.344 301.822 194.921 301.138L181.718 265.921C181.056 264.166 179.378 263.001 177.501 263.001C175.625 263.001 173.946 264.166 173.284 265.921L159.789 301.921C159.272 303.302 159.461 304.85 160.302 306.065C161.144 307.275 162.525 308 164.001 308H173.001V321.5C173.001 323.983 175.017 326 177.501 326H339.499C341.983 326 343.999 323.983 343.999 321.5C343.999 319.016 341.984 316.999 339.499 316.999ZM170.495 299L177.501 280.316L184.507 299H170.495ZM278.494 299L285.5 280.316L292.506 299H278.494Z" fill="#28B485"/>
<path d="M366.499 317H357.499C355.016 317 353 319.016 353 321.499C353 323.983 355.016 325.999 357.499 325.999H366.499C368.983 325.999 370.999 323.983 370.999 321.499C370.999 319.016 368.984 317 366.499 317Z" fill="#28B485"/>
</g>
<path d="M326.636 97.311H322.364V110H326.636V97.311Z" fill="#F8A87D"/>
<path d="M326.636 35H322.364V47.6889H326.636V35Z" fill="#F8A87D"/>
<path d="M296.473 97.5062L299.494 100.526L308.466 91.5541L305.446 88.5339L296.473 97.5062Z" fill="#F8A87D"/>
<path d="M340.534 53.4456L343.554 56.4658L352.526 47.4936L349.506 44.4734L340.534 53.4456Z" fill="#F8A87D"/>
<path d="M299.689 70.3643H287V74.6355H299.689V70.3643Z" fill="#F8A87D"/>
<path d="M362 70.3643H349.311V74.6355H362V70.3643Z" fill="#F8A87D"/>
<path d="M299.494 44.4734L296.474 47.4937L305.446 56.4659L308.466 53.4457L299.494 44.4734Z" fill="#F8A87D"/>
<path d="M343.554 88.534L340.534 91.5542L349.506 100.526L352.527 97.5062L343.554 88.534Z" fill="#F8A87D"/>
<path d="M324.5 92.8711C335.75 92.8711 344.871 83.7507 344.871 72.5C344.871 61.2494 335.75 52.1289 324.5 52.1289C313.249 52.1289 304.128 61.2494 304.128 72.5C304.128 83.7507 313.249 92.8711 324.5 92.8711Z" fill="#F8A87D"/>
<path d="M324.499 88.1298C333.132 88.1298 340.129 81.1321 340.129 72.5C340.129 63.8678 333.132 56.8701 324.499 56.8701C315.867 56.8701 308.87 63.8678 308.87 72.5C308.87 81.1321 315.867 88.1298 324.499 88.1298Z" fill="#FF7730"/>
<defs>
<clipPath id="clip0_72_4">
<rect width="270" height="270" fill="white" transform="translate(101 83)"/>
</clipPath>
</defs>
</svg>
