<svg width="400" height="400" viewBox="0 0 400 400" fill="none" xmlns="http://www.w3.org/2000/svg">
<path d="M265.162 335.025C264.967 334.753 264.722 334.526 264.478 334.299L247.216 319.426L236.067 297.205C233.036 291.537 228.635 288 222.082 288H193.965C187.364 288 183.012 291.537 179.98 297.205L168.831 319.426L151.57 334.299C151.325 334.526 151.081 334.798 150.885 335.025C149.125 336.431 148 338.517 148 340.829C148 345.047 151.716 348.493 156.264 348.493C158.953 348.493 161.301 347.314 162.816 345.455C162.963 345.364 163.11 345.228 163.208 345.137L181.496 329.357C182.18 328.722 182.718 327.996 183.11 327.18L188.929 315.616L188.635 336.023L163.11 348.901C158.464 351.259 156.264 356.338 157.927 361.009C159.589 365.68 164.577 368.582 169.809 367.902L207.999 358.741L246.189 367.902C251.422 368.582 256.458 365.68 258.072 361.009C259.735 356.338 257.534 351.259 252.889 348.901L227.363 335.977L227.07 315.571L232.889 327.135C233.28 327.951 233.867 328.676 234.503 329.311L252.791 345.092C252.938 345.228 253.035 345.319 253.182 345.409C254.698 347.223 257.045 348.448 259.735 348.448C264.282 348.448 267.998 345.001 267.998 340.784C268.047 338.471 266.923 336.431 265.162 335.025Z" fill="#28262C"/>
<path d="M208 288C219.046 288 228 279.046 228 268C228 256.954 219.046 248 208 248C196.954 248 188 256.954 188 268C188 279.046 196.954 288 208 288Z" fill="#28262C"/>
<path d="M108 221.222C108 212.371 101.387 204.978 92.5255 203.061C90.3238 194.99 82.5032 189.011 73.1658 189.011C70.6087 189.011 68.1713 189.476 65.9249 190.292C62.4616 187.613 58.0156 186 53.1647 186C42.1192 186 33.165 194.354 33.165 204.658C33.165 206.514 33.4646 208.303 34.0055 209.997C30.3027 213.384 28 218.097 28 223.317C28 233.621 36.9539 241.974 47.9997 241.974C48.5152 241.974 49.0225 241.949 49.526 241.909C54.0506 248.452 65.9866 268.917 48.4968 281.693C47.3733 282.514 47.1761 284.028 48.0555 285.077C48.5655 285.684 49.3237 286 50.0902 286C50.6472 286 51.2088 285.832 51.6796 285.487C71.2973 271.157 60.5709 247.488 52.1578 236.975C52.1099 236.914 52.0521 236.866 52.0002 236.812L40.7426 221.558L63.3405 235.312V217.844L69.0876 226.78L69.2478 226.992C69.8097 227.637 72.8425 230.863 77.3371 231.143C80.6586 231.348 83.9977 229.897 87.2313 226.879C87.8284 226.321 88.8258 225.39 89.2337 225.374C89.2616 225.394 89.2881 225.411 89.31 225.428C89.1733 226.073 88.2047 227.789 87.1808 229.6C86.7272 230.405 86.2048 231.304 85.6363 232.282C84.6098 234.048 83.4382 236.068 82.2375 238.261C82.4871 238.288 82.7344 238.337 82.9777 238.391C75.3549 250.061 68.6698 270.303 86.1898 283.101C86.6641 283.446 87.2239 283.613 87.78 283.613C88.5481 283.613 89.307 283.296 89.8158 282.69C90.6943 281.641 90.498 280.127 89.3727 279.308C72.2214 266.777 83.4359 246.772 88.1102 239.875C99.1058 239.817 108 231.49 108 221.222Z" fill="#28B485"/>
<path d="M340 223.222C340 214.371 333.387 206.978 324.526 205.061C322.324 196.99 314.503 191.011 305.166 191.011C302.609 191.011 300.171 191.476 297.925 192.292C294.462 189.613 290.016 188 285.165 188C274.119 188 265.165 196.354 265.165 206.658C265.165 208.514 265.465 210.303 266.005 211.997C262.303 215.384 260 220.097 260 225.317C260 235.621 268.954 243.974 280 243.974C280.515 243.974 281.022 243.949 281.526 243.909C286.051 250.452 297.987 270.917 280.497 283.693C279.373 284.514 279.176 286.028 280.055 287.077C280.565 287.684 281.324 288 282.09 288C282.647 288 283.209 287.832 283.68 287.487C303.297 273.157 292.571 249.488 284.158 238.975C284.11 238.914 284.052 238.866 284 238.812L272.743 223.558L295.341 237.312V219.844L301.088 228.78L301.248 228.992C301.81 229.637 304.842 232.863 309.337 233.143C312.659 233.348 315.998 231.897 319.231 228.879C319.828 228.321 320.826 227.39 321.234 227.374C321.262 227.394 321.288 227.411 321.31 227.428C321.173 228.073 320.205 229.789 319.181 231.6C318.727 232.405 318.205 233.304 317.636 234.282C316.61 236.048 315.438 238.068 314.237 240.261C314.487 240.288 314.734 240.337 314.978 240.391C307.355 252.061 300.67 272.303 318.19 285.101C318.664 285.446 319.224 285.613 319.78 285.613C320.548 285.613 321.307 285.296 321.816 284.69C322.694 283.641 322.498 282.127 321.373 281.308C304.221 268.777 315.436 248.772 320.11 241.875C331.106 241.817 340 233.49 340 223.222Z" fill="#28B485"/>
<path d="M208 144.877C208 129.831 197.254 117.263 182.854 114.004C179.276 100.284 166.568 90.1194 151.394 90.1194C147.239 90.1194 143.278 90.9095 139.628 92.2969C134 87.7419 126.775 85 118.893 85C100.944 85 86.3931 99.2024 86.3931 116.718C86.3931 119.874 86.88 122.915 87.7589 125.794C81.7419 131.553 78 139.565 78 148.439C78 165.956 92.5501 180.156 110.5 180.156C111.337 180.156 112.162 180.113 112.98 180.045C120.332 191.168 139.728 225.959 111.307 247.679C109.482 249.074 109.161 251.648 110.59 253.43C111.419 254.462 112.651 255 113.897 255C114.802 255 115.714 254.715 116.479 254.128C148.358 229.767 130.928 189.53 117.256 171.657C117.179 171.553 117.085 171.473 117 171.381L98.7068 145.449L135.428 168.83V139.135L144.767 154.326L145.028 154.687C145.941 155.783 150.869 161.267 158.173 161.744C163.57 162.092 168.996 159.624 174.251 154.495C175.221 153.546 176.842 151.963 177.505 151.937C177.55 151.971 177.593 151.999 177.629 152.027C177.407 153.124 175.833 156.041 174.169 159.121C173.432 160.489 172.583 162.016 171.659 163.679C169.991 166.681 168.087 170.116 166.136 173.843C166.542 173.889 166.943 173.973 167.339 174.065C154.952 193.904 144.088 228.316 172.558 250.071C173.329 250.658 174.239 250.942 175.142 250.942C176.391 250.942 177.624 250.403 178.451 249.373C179.878 247.591 179.559 245.017 177.731 243.623C149.86 222.32 168.083 188.313 175.679 176.587C193.547 176.489 208 162.334 208 144.877Z" fill="#28B485"/>
<path d="M279.636 89.311H275.364V102H279.636V89.311Z" fill="#F8A87D"/>
<path d="M279.636 27H275.364V39.6889H279.636V27Z" fill="#F8A87D"/>
<path d="M249.473 89.5062L252.494 92.5264L261.466 83.5541L258.446 80.5339L249.473 89.5062Z" fill="#F8A87D"/>
<path d="M293.534 45.4456L296.554 48.4658L305.526 39.4936L302.506 36.4734L293.534 45.4456Z" fill="#F8A87D"/>
<path d="M252.689 62.3643H240V66.6355H252.689V62.3643Z" fill="#F8A87D"/>
<path d="M315 62.3643H302.311V66.6355H315V62.3643Z" fill="#F8A87D"/>
<path d="M252.494 36.4734L249.474 39.4937L258.446 48.4659L261.466 45.4457L252.494 36.4734Z" fill="#F8A87D"/>
<path d="M296.554 80.534L293.534 83.5542L302.506 92.5264L305.527 89.5062L296.554 80.534Z" fill="#F8A87D"/>
<path d="M277.5 84.8711C288.75 84.8711 297.871 75.7507 297.871 64.5C297.871 53.2494 288.75 44.1289 277.5 44.1289C266.249 44.1289 257.128 53.2494 257.128 64.5C257.128 75.7507 266.249 84.8711 277.5 84.8711Z" fill="#F8A87D"/>
<path d="M277.499 80.1298C286.132 80.1298 293.129 73.1321 293.129 64.5C293.129 55.8678 286.132 48.8701 277.499 48.8701C268.867 48.8701 261.87 55.8678 261.87 64.5C261.87 73.1321 268.867 80.1298 277.499 80.1298Z" fill="#FF7730"/>
</svg>
